<svg id="Layer_5" enable-background="new 0 0 64 64" height="512" viewBox="0 0 64 64" width="512" xmlns="http://www.w3.org/2000/svg"><g><path d="m50.414 1h-43.414v8h-1c-2.757 0-5 2.243-5 5v20c0 2.757 2.243 5 5 5h1v24h56v-49.414zm.586 3.414 8.586 8.586h-8.586zm-38 12.586v-14h2v14zm-2-14v14h-2v-14zm-5 8h1v6h-1c-1.654 0-3-1.346-3-3s1.346-3 3-3zm-3 23v-16.002c.836.628 1.875 1.002 3 1.002h32c1.654 0 3 1.346 3 3v12c0 1.654-1.346 3-3 3h-32c-1.654 0-3-1.346-3-3zm12 5v22h-2v-22zm-6 0h2v22h-2zm8 22v-22h21c2.757 0 5-2.243 5-5v-12c0-2.757-2.243-5-5-5h-21v-14h32v12h12v46z"/><path d="m15.132 20.504-3.132 5.481-3.132-5.481-1.736.992 3.716 6.504-3.716 6.504 1.736.992 3.132-5.481 3.132 5.481 1.736-.992-3.716-6.504 3.716-6.504z"/><path d="m37 24.906c0-2.154-1.752-3.906-3.905-3.906h-.189c-2.154 0-3.906 1.752-3.906 3.906 0 1.684 1.073 3.172 2.671 3.705l2.025.676c.78.26 1.304.986 1.304 1.808 0 1.05-.854 1.905-1.905 1.905h-.189c-1.052 0-1.906-.855-1.906-1.906v-1.094h-2v1.094c0 2.154 1.752 3.906 3.905 3.906h.189c2.154 0 3.906-1.752 3.906-3.906 0-1.684-1.073-3.172-2.671-3.705l-2.025-.676c-.781-.259-1.304-.986-1.304-1.807 0-1.051.854-1.906 1.905-1.906h.189c1.052 0 1.906.855 1.906 1.906v.094z"/><path d="m22 21h-2v14h6v-2h-4z"/><path d="m19 11h6v-6h-6zm2-4h2v2h-2z"/><path d="m27 11h6v-6h-6zm2-4h2v2h-2z"/><path d="m35 11h6v-6h-6zm2-4h2v2h-2z"/><path d="m27 59h32v-18h-32zm2-4h6v2h-6zm12 0v2h-4v-2zm-4-2v-2h4v2zm6 2h4v2h-4zm0-2v-2h4v2zm6-2h8v2h-8zm0-2v-2h8v2zm-2 0h-4v-2h4zm-10-4v-2h10v2zm4 2v2h-4v-2zm-6 2h-6v-2h6zm0 2v2h-6v-2zm14 6v-2h8v2zm8-12h-8v-2h8zm-22-2v2h-6v-2z"/><path d="m45 17h14v2h-14z"/><path d="m45 21h14v2h-14z"/><path d="m45 25h2v2h-2z"/><path d="m49 25h10v2h-10z"/><path d="m57 29h2v2h-2z"/><path d="m45 29h10v2h-10z"/><path d="m45 33h14v2h-14z"/><path d="m45 37h14v2h-14z"/></g></svg>